<svg xmlns="http://www.w3.org/2000/svg" viewBox="0 0 384 384">
  <style>
    :root {
      color-scheme: light dark;
    }
    path {
      fill: #000; /* по умолчанию чёрный для светлой темы */
    }
    @media (prefers-color-scheme: dark) {
      path {
        fill: #fff; /* белый для тёмной темы */
      }
    }
  </style>
  <path d="M 284.554688 139.472656 C 263.851562 139.472656 249.777344 150.929688 245.757812 169.972656 L 323.355469 169.972656 C 320.003906 150.085938 305.792969 139.472656 284.554688 139.472656 Z M 283.136719 90.066406 C 344.777344 90.066406 383.867188 134.230469 383.867188 189.351562 L 383.863281 209.898438 L 245.75 209.722656 C 247.003906 225.292969 264.566406 240.804688 295.742188 240.804688 C 319.945312 240.804688 337.652344 234.175781 346.1875 227.449219 L 370.324219 274.265625 C 356.015625 282.726562 325.683594 294.066406 290.0625 294.066406 C 216.71875 294.066406 179.210938 247.304688 179.210938 189.351562 C 179.210938 134.539062 219.949219 90.066406 283.136719 90.066406 Z M 94.257812 146.234375 C 87.375 145.300781 71.925781 144.039062 71.925781 186.078125 L 71.320312 294.066406 L 0.132812 294.066406 L 0.132812 94.042969 L 65.46875 93.8125 L 65.46875 119.183594 C 81.027344 89.058594 127 84.105469 153.625 96.125 L 153.625 181.328125 C 150.742188 182 145.453125 182.972656 142.789062 183.347656 C 107.613281 188.277344 93.785156 167.652344 94.257812 146.234375 Z"/>
</svg>
